<svg width="336" height="209" viewBox="0 0 336 209" fill="none" xmlns="http://www.w3.org/2000/svg">
<path d="M163.027 1.11452C163.761 -0.371436 165.88 -0.371574 166.614 1.11452L196.095 60.8508C196.386 61.4411 196.95 61.8509 197.601 61.9456L263.524 71.5247C265.164 71.7631 265.819 73.7788 264.632 74.9358L216.93 121.434C216.459 121.893 216.244 122.556 216.355 123.204L227.616 188.861C227.896 190.494 226.181 191.74 224.714 190.969L165.75 159.97C165.168 159.664 164.472 159.664 163.889 159.97L104.926 190.969C103.459 191.74 101.744 190.494 102.024 188.861L113.286 123.204C113.397 122.556 113.182 121.893 112.71 121.434L65.0082 74.9358C63.8212 73.7787 64.4762 71.763 66.1166 71.5247L132.039 61.9456C132.691 61.8508 133.254 61.441 133.545 60.8508L163.027 1.11452ZM190.986 71.4729C185.882 71.4729 181.569 72.676 178.049 75.0813C174.53 77.4866 171.86 81.065 170.041 85.8167C168.223 90.5099 167.314 96.318 167.314 103.24C167.314 113.507 169.337 121.457 173.385 127.089C177.492 132.662 183.359 135.449 190.986 135.449C196.09 135.448 200.401 134.188 203.921 131.665C207.441 129.143 210.111 125.476 211.93 120.665C213.749 115.855 214.658 110.017 214.658 103.153C214.658 92.8275 212.633 84.9659 208.585 79.5686C204.537 74.1715 198.671 71.473 190.986 71.4729ZM136.636 71.4729C133.703 71.4729 130.77 71.7954 127.836 72.4407C124.962 73.086 122.175 74.142 119.476 75.6087C117.951 76.4299 116.895 77.4861 116.308 78.7766C115.721 80.0086 115.516 81.2702 115.692 82.5608C115.927 83.8515 116.454 84.9961 117.276 85.9934C118.156 86.9906 119.212 87.6356 120.444 87.929C121.734 88.2223 123.172 88.0168 124.756 87.3128C126.575 86.3742 128.276 85.7292 129.86 85.3772C131.444 84.9665 132.94 84.761 134.348 84.761C137.105 84.761 139.217 85.3182 140.684 86.4329C142.151 87.5475 142.884 89.2194 142.884 91.4485C142.884 93.2084 142.385 94.9688 141.388 96.7288C140.449 98.4887 138.836 100.601 136.548 103.065L121.148 119.169C119.975 120.401 119.006 121.663 118.244 122.953C117.54 124.244 117.188 125.71 117.188 127.353C117.188 129.699 117.745 131.489 118.86 132.721C120.033 133.894 121.91 134.481 124.492 134.481H155.116C157.286 134.481 158.93 133.924 160.044 132.809C161.218 131.636 161.804 129.993 161.804 127.881C161.804 125.769 161.217 124.156 160.044 123.041C158.93 121.927 157.286 121.369 155.116 121.369H137.479L147.636 111.337C150.335 108.697 152.476 106.203 154.06 103.857C155.703 101.51 156.876 99.1633 157.58 96.8167C158.342 94.47 158.724 92.0648 158.724 89.6008C158.724 85.6704 157.873 82.3853 156.172 79.7454C154.471 77.0467 151.977 74.9932 148.692 73.5852C145.465 72.1773 141.447 71.4729 136.636 71.4729ZM190.986 84.3206C193.802 84.3206 195.885 85.7877 197.234 88.721C198.642 91.5956 199.345 96.4062 199.345 103.153C199.345 109.958 198.642 114.915 197.234 118.025C195.885 121.075 193.802 122.601 190.986 122.601C188.17 122.601 186.058 121.075 184.65 118.025C183.301 114.915 182.625 109.958 182.625 103.153C182.625 96.4061 183.301 91.5956 184.65 88.721C186.058 85.7877 188.17 84.3206 190.986 84.3206Z" fill="white"/>
<path d="M310.244 187.657H335.496V207.481H284.048V123.937H310.244V187.657Z" fill="#2B7AE0"/>
<path d="M200.305 174.205C200.305 167.204 201.485 161.146 203.845 156.033C206.284 150.841 209.588 146.908 213.757 144.233C217.926 141.48 222.607 140.103 227.799 140.103C232.126 140.103 235.862 141.008 239.009 142.817C242.156 144.548 244.555 146.947 246.207 150.015V140.929H272.285V207.481H246.207V198.395C244.555 201.463 242.156 203.902 239.009 205.711C235.862 207.442 232.126 208.307 227.799 208.307C222.607 208.307 217.926 206.97 213.757 204.295C209.588 201.542 206.284 197.608 203.845 192.495C201.485 187.303 200.305 181.206 200.305 174.205ZM246.207 174.205C246.207 170.665 245.302 167.912 243.493 165.945C241.684 163.978 239.363 162.995 236.531 162.995C233.699 162.995 231.378 163.978 229.569 165.945C227.76 167.912 226.855 170.665 226.855 174.205C226.855 177.745 227.76 180.498 229.569 182.465C231.378 184.432 233.699 185.415 236.531 185.415C239.363 185.415 241.684 184.432 243.493 182.465C245.302 180.498 246.207 177.745 246.207 174.205Z" fill="#2B7AE0"/>
<path d="M193.868 185.179V207.481H183.956C165.706 207.481 156.58 198.395 156.58 180.223V162.759H148.32V140.929H156.58V124.881H182.776V140.929H193.632V162.759H182.776V180.695C182.776 182.268 183.13 183.409 183.838 184.117C184.625 184.825 185.884 185.179 187.614 185.179H193.868Z" fill="#2B7AE0"/>
<path d="M109.057 208.307C102.37 208.307 96.3522 206.93 91.0029 204.177C85.6536 201.424 81.4449 197.49 78.3769 192.377C75.3876 187.185 73.8929 181.128 73.8929 174.205C73.8929 167.282 75.3876 161.264 78.3769 156.151C81.4449 150.959 85.6536 146.986 91.0029 144.233C96.3522 141.48 102.37 140.103 109.057 140.103C115.744 140.103 121.762 141.48 127.111 144.233C132.46 146.986 136.63 150.959 139.619 156.151C142.687 161.264 144.221 167.282 144.221 174.205C144.221 181.128 142.687 187.185 139.619 192.377C136.63 197.49 132.46 201.424 127.111 204.177C121.762 206.93 115.744 208.307 109.057 208.307ZM109.057 185.651C111.496 185.651 113.541 184.707 115.193 182.819C116.845 180.852 117.671 177.981 117.671 174.205C117.671 170.429 116.845 167.597 115.193 165.709C113.541 163.742 111.496 162.759 109.057 162.759C106.618 162.759 104.573 163.742 102.921 165.709C101.269 167.597 100.443 170.429 100.443 174.205C100.443 177.981 101.23 180.852 102.803 182.819C104.455 184.707 106.54 185.651 109.057 185.651Z" fill="#2B7AE0"/>
<path d="M70.328 123.937V144.705H48.144V207.481H21.948V144.705H0V123.937H70.328Z" fill="#2B7AE0"/>
</svg>
